<?xml version="1.0" encoding="utf-8"?>
<!-- Generator: Adobe Illustrator 19.0.0, SVG Export Plug-In . SVG Version: 6.00 Build 0)  -->
<svg version="1.1" id="layer" xmlns="http://www.w3.org/2000/svg" xmlns:xlink="http://www.w3.org/1999/xlink" x="0px" y="0px"
	 viewBox="-153 -46 652 652" style="enable-background:new -153 -46 652 652;" xml:space="preserve">
<style type="text/css">
	.st0{fill:#8A8A8D;}
	.st1{fill:#F1655B;}
</style>
<path class="st0" d="M-71.6,302h-35.5l-5.5,14.4H-127l29.4-75.2H-86c2.9,0,5.6,1.8,6.6,4.5l27.6,70.7h-14.4L-71.6,302z
	 M-103.4,290.4h28.1l-14-38L-103.4,290.4z M5,288.4H-8v28.1h-13.1v-75.2h32.9c14.8,0,24.5,9.7,24.5,23.6c0,13.4-8.8,20.6-17.7,22.1
	l18.3,29.5H21.6L5,288.4z M10,252.9H-8v23.9h18c7.4,0,12.8-4.7,12.8-12C22.8,257.5,17.4,252.9,10,252.9z M86.3,252.9H63.7v-4.4
	c0-3.9,3.2-7.2,7.1-7.2h51.3v11.6H99.5v63.6H86.3V252.9z M152.4,241.2h6c3.9,0,7.1,3.2,7.1,7.2v68h-13.1V241.2z M196.1,278.9
	c0-23.1,17.2-38.9,38.7-38.9c15.7,0,25,7.9,30.6,16.9l-11.2,5.7c-4.1-6.8-11.5-11-19.4-10.9c-14.3,0-25.3,11.4-25.3,27.2
	s11,27.2,25.3,27.2c8,0.1,15.4-4.1,19.4-10.9l11.2,5.7c-5.7,9-14.9,16.9-30.6,16.9C213.3,317.8,196.1,302,196.1,278.9z M303.4,241.2
	h6v63.6h33v11.6h-46.1v-68C296.2,244.5,299.4,241.3,303.4,241.2C303.4,241.2,303.4,241.2,303.4,241.2z M380.6,241.2h44.2v11.6h-38.2
	v19.5h37.4V284h-37.4v20.8h38.2v11.6h-51.3v-68C373.4,244.5,376.6,241.3,380.6,241.2C380.5,241.2,380.5,241.2,380.6,241.2z"/>
<path class="st1" d="M460.5,299.6c4.9-1.7,10.3,0.9,12.1,5.8c1.7,4.9-0.9,10.3-5.8,12.1c-4.9,1.7-10.3-0.9-12.1-5.8
	c-0.7-2-0.7-4.2,0-6.2C455.6,302.7,457.7,300.5,460.5,299.6z"/>
</svg>
